<?xml version="1.0" encoding="iso-8859-1"?>
<!-- Uploaded to: SVG Repo, www.svgrepo.com, Generator: SVG Repo Mixer Tools -->
<!DOCTYPE svg PUBLIC "-//W3C//DTD SVG 1.1//EN" "http://www.w3.org/Graphics/SVG/1.1/DTD/svg11.dtd">
<svg fill="#000000" version="1.1" id="Capa_1" xmlns="http://www.w3.org/2000/svg" xmlns:xlink="http://www.w3.org/1999/xlink" 
	 width="800px" height="800px" viewBox="0 0 588.561 588.561"
	 xml:space="preserve">
<g>
	<g>
		<path d="M229.368,543.119c-4.779,4.78-4.779,12.531,0,17.311l19.474,19.474c4.78,4.78,14.134,8.657,20.894,8.657h49.089
			c6.759,0,16.113-3.877,20.894-8.657l19.474-19.474c4.779-4.779,8.653-14.137,8.653-20.896V251.342c0-6.759,5.48-12.24,12.24-12.24
			h42.938c20.333,0,36.784-16.454,36.784-36.784C459.808,90.598,385.698,0,294.274,0c-91.423,0-165.521,90.598-165.521,202.318
			c0,20.334,16.454,36.785,36.784,36.785h42.938c6.76,0,12.24,5.48,12.24,12.24v116.506v24.545c0,6.759,3.874,16.113,8.653,20.896
			l19.474,19.474c4.78,4.779,4.78,12.53,0,17.311l-19.477,19.474c-4.78,4.779-4.78,12.53,0,17.311l19.474,19.474
			c4.779,4.78,4.779,12.53,0,17.311L229.368,543.119z M340.266,505.794c0,5.063-4.131,9.195-9.195,9.195s-9.195-4.132-9.195-9.195
			V266.691c0-5.101,4.131-9.195,9.195-9.195s9.195,4.097,9.195,9.195V505.794z M237.884,116.892
			c-3.592,9.486-14.226,14.263-23.709,10.633c-9.483-3.592-14.263-14.226-10.633-23.709c15.016-39.55,52.087-67.032,90.276-67.032
			c0.181,0,0.395,0,0.612,0c38.904,0.288,76.228,28.452,90.704,68.471c3.485,9.557-1.472,20.08-11.028,23.565
			c-2.047,0.719-4.167,1.077-6.251,1.077c-7.507,0-14.584-4.669-17.28-12.142c-9.231-25.435-32.94-44.006-56.436-44.183
			C271.293,74.756,247.655,91.209,237.884,116.892z"/>
	</g>
</g>
</svg>